<!-- icon666.com - MILLIONS vector ICONS FREE --><svg id="Capa_1" enable-background="new 0 0 511.714 511.714" viewBox="0 0 511.714 511.714" xmlns="http://www.w3.org/2000/svg"><g><g><path d="m67.785 477.615v-322.946c0-14.69 11.909-26.599 26.599-26.599h322.946c14.69 0 26.599 11.909 26.599 26.599v322.946c0 14.69-11.909 26.599-26.599 26.599h-322.946c-14.69 0-26.599-11.909-26.599-26.599z" fill="#e2dfe2"></path></g><g><path d="m416.543 478.387h-321.371c-.862 0-1.56-.699-1.56-1.56v-321.371c0-.862.699-1.56 1.56-1.56h321.371c.862 0 1.56.699 1.56 1.56v321.371c0 .862-.699 1.56-1.56 1.56z" fill="#a59da5"></path></g><g><path d="m197.26 256.096c-7.943 0-24.191-9.133-25.161-22.312l-1.841-24.998c-1.156-15.694 11.266-29.064 27.002-29.064s28.158 13.37 27.002 29.064l-1.841 24.998c-.971 13.179-17.218 22.312-25.161 22.312z" fill="#f1f4f6"></path></g><g><path d="m229.16 262.586h-15.787-.001c-1.278.091-2.323-.882-2.323-2.163v-9.526c-4.834 3.307-10.172 5.2-13.789 5.2s-8.955-1.893-13.789-5.2v9.515c0 1.281-1.046 2.26-2.325 2.175h-15.787c-14.744 0-26.697 11.953-26.697 26.697v70.293c0 14.744 11.953 26.697 26.697 26.697v90.088c0 1.119.907 2.027 2.027 2.027h59.748c1.119 0 2.027-.907 2.027-2.027v-90.088c14.744 0 26.697-11.953 26.697-26.697v-70.293c-.001-14.746-11.953-26.698-26.698-26.698z" fill="#f1f4f6"></path></g><g><path d="m314.455 256.096c-7.943 0-24.191-9.133-25.161-22.312l-1.841-24.998c-1.156-15.694 11.266-29.064 27.002-29.064s28.158 13.37 27.002 29.064l-1.841 24.998c-.971 13.179-17.218 22.312-25.161 22.312z" fill="#f1f4f6"></path></g><g><path d="m315.482 179.742c4.183 5.152 6.504 11.854 5.974 19.044l-1.841 24.998c-.946 12.851-16.417 21.854-24.552 22.295 5.705 6.224 14.272 10.017 19.391 10.017 7.943 0 24.191-9.133 25.161-22.312l1.841-24.998c1.131-15.351-10.728-28.477-25.974-29.044z" fill="#efecef"></path></g><g><path d="m346.355 262.586h-15.787-.001c-1.278.091-2.323-.882-2.323-2.163v-9.526c-4.834 3.307-10.172 5.2-13.789 5.2s-8.955-1.893-13.789-5.2v9.515c0 1.281-1.046 2.26-2.325 2.175h-15.787c-14.744 0-26.697 11.953-26.697 26.697v70.293c0 14.744 11.953 26.697 26.697 26.697v90.088c0 1.119.907 2.027 2.027 2.027h59.748c1.119 0 2.027-.907 2.027-2.027v-90.088c14.744 0 26.697-11.953 26.697-26.697v-70.293c-.001-14.746-11.953-26.698-26.698-26.698z" fill="#f1f4f6"></path></g><g><path d="m346.355 262.586h-5.996c1.724 3.532 2.693 7.501 2.693 11.697v70.293c0 9.39-4.847 17.647-12.176 22.406-9.011 5.852-14.521 15.799-14.521 26.544v40.573c0 16.176-13.113 29.289-29.289 29.289h-4.512v12.974c0 1.119.907 2.027 2.026 2.027h59.748c1.119 0 2.026-.907 2.026-2.027v-90.088c14.744 0 26.697-11.953 26.697-26.697v-70.293c.001-14.746-11.951-26.698-26.696-26.698z" fill="#efecef"></path></g><g><path d="m198.288 179.742c4.183 5.152 6.504 11.854 5.974 19.044l-1.841 24.998c-.946 12.851-16.417 21.854-24.552 22.295 5.705 6.224 14.272 10.017 19.391 10.017 7.943 0 24.191-9.133 25.161-22.312l1.841-24.998c1.131-15.351-10.729-28.477-25.974-29.044z" fill="#efecef"></path></g><g><path d="m229.16 262.586h-5.996c1.724 3.532 2.693 7.501 2.693 11.697v70.293c0 9.39-4.847 17.647-12.176 22.406-9.011 5.852-14.521 15.799-14.521 26.544v40.573c0 16.176-13.113 29.289-29.289 29.289h-4.512v12.974c0 1.119.907 2.027 2.026 2.027h59.748c1.119 0 2.026-.907 2.026-2.027v-90.088c14.744 0 26.697-11.953 26.697-26.697v-70.293c.001-14.746-11.951-26.698-26.696-26.698z" fill="#efecef"></path></g><g><path d="m246.716 75.823-49.928-67.866c-.448-.609-1.359-.609-1.808 0l-49.927 67.866c-.545.741-.016 1.787.904 1.787h27.577c.62 0 1.122.502 1.122 1.122v49.337h42.457v-49.337c0-.62.502-1.122 1.122-1.122h27.577c.92 0 1.449-1.046.904-1.787z" fill="#b3e59f"></path></g><g><path d="m366.661 59.746-49.927 67.866c-.448.609-1.359.609-1.808 0l-49.927-67.866c-.545-.741-.016-1.787.904-1.787h27.577c.62 0 1.122-.502 1.122-1.122v-49.337h42.457v49.337c0 .62.502 1.122 1.122 1.122h27.577c.919 0 1.448 1.046.903 1.787z" fill="#8993da"></path></g><g><path d="m246.716 75.823-49.928-67.866c-.448-.609-1.359-.609-1.807 0l-5.418 7.365 26.3 35.75c5.045 6.858.148 16.539-8.365 16.539-5.735 0-10.385 4.649-10.385 10.385v30.812c0 5.116-4.147 9.263-9.263 9.263h-13.194v10h42.457v-49.339c0-.62.502-1.122 1.122-1.122h27.577c.92 0 1.449-1.046.904-1.787z" fill="#95d6a4"></path></g><g><path d="m317.058 37.575c0 5.735 4.649 10.385 10.385 10.385 4.58 0 8.114 2.802 9.615 6.46v-46.92h-20z" fill="#707dd3"></path></g><g><path d="m365.757 57.959h-27.577c-.12 0-.237-.019-.345-.054.104 2.227-.514 4.537-2.027 6.593l-31.613 42.972c-.686.932-1.489 1.709-2.37 2.334l13.101 17.808c.448.609 1.359.609 1.807 0l49.927-67.866c.546-.741.017-1.787-.903-1.787z" fill="#707dd3"></path></g><path d="m67.785 378.979c-4.143 0-7.5 3.358-7.5 7.5v91.136c0 18.803 15.297 34.1 34.1 34.1h322.945c18.803 0 34.1-15.297 34.1-34.1v-322.946c0-18.803-15.297-34.1-34.1-34.1h-86.105c43.554-59.202 41.378-56.28 41.479-56.38 4.183-5.691.115-13.729-6.947-13.729h-21.198v-42.96c0-4.142-3.357-7.5-7.5-7.5h-42.457c-4.143 0-7.5 3.358-7.5 7.5v42.959h-21.199c-7.064 0-11.129 8.041-6.944 13.731l41.475 56.378h-75.82v-35.458h21.199c7.062 0 11.132-8.042 6.944-13.731l-9.445-12.84c-2.453-3.337-7.15-4.051-10.485-1.597-3.337 2.455-4.052 7.149-1.597 10.486l1.973 2.682h-14.967c-4.754 0-8.622 3.868-8.622 8.622v41.837h-27.457v-41.837c0-4.754-3.868-8.622-8.622-8.622h-14.966l37.316-50.725 14.128 19.203c2.454 3.337 7.15 4.051 10.485 1.597 3.337-2.455 4.052-7.149 1.597-10.486l-19.264-26.186c-3.439-4.675-10.45-4.68-13.891 0l-49.928 67.866c-4.186 5.69-.119 13.731 6.945 13.731h21.198v35.459h-72.77c-18.803 0-34.1 15.297-34.1 34.1v196.81c0 4.142 3.357 7.5 7.5 7.5s7.5-3.358 7.5-7.5v-196.81c0-10.532 8.568-19.1 19.1-19.1h322.945c10.531 0 19.1 8.568 19.1 19.1v322.946c0 10.532-8.568 19.1-19.1 19.1h-322.945c-10.531 0-19.1-8.568-19.1-19.1v-91.136c0-4.142-3.358-7.5-7.5-7.5zm292.833-323.675.002-.002-.008.011zm-67.139 10.155c4.754 0 8.622-3.868 8.622-8.622v-41.837h27.457v41.837c0 4.754 3.868 8.622 8.622 8.622h14.967l-37.317 50.725-37.317-50.725z"></path><path d="m418.103 203.298c4.143 0 7.5-3.358 7.5-7.5v-40.342c0-4.996-4.064-9.061-9.061-9.061h-321.37c-4.996 0-9.061 4.064-9.061 9.061v321.371c0 4.996 4.064 9.06 9.061 9.06h321.371c4.996 0 9.061-4.064 9.061-9.06v-246.029c0-4.142-3.357-7.5-7.5-7.5s-7.5 3.358-7.5 7.5v240.089h-56.748v-77.943c15.261-3.428 26.697-17.088 26.697-33.368v-70.293c0-18.856-15.341-34.197-34.197-34.197h-10.612v-.457c5.986-4.982 10.733-11.882 11.353-20.294l1.841-24.997c1.476-20.022-14.406-37.115-34.481-37.115-20.076 0-35.957 17.093-34.481 37.115l1.841 24.998c.62 8.412 5.366 15.311 11.352 20.293v.458h-10.611c-10.788 0-20.425 5.022-26.697 12.85-6.272-7.828-15.909-12.85-26.697-12.85h-10.611v-.458c5.985-4.982 10.732-11.881 11.352-20.293l1.841-24.997c1.476-20.022-14.406-37.115-34.481-37.115-20.076 0-35.957 17.095-34.481 37.115l1.841 24.998c.62 8.412 5.367 15.312 11.353 20.294v.457h-10.612c-18.856 0-34.197 15.341-34.197 34.197v70.293c0 16.28 11.437 29.94 26.697 33.368v77.943h-56.748v-309.493h309.492v34.403c-.007 4.141 3.351 7.499 7.493 7.499zm-181.443 189.646c7.698-1.729 14.422-6.062 19.197-12.021 4.775 5.959 11.499 10.292 19.197 12.021v77.943h-38.394zm63.453-199.47c7.706-8.295 20.885-8.393 28.684 0 3.745 4.031 5.585 9.273 5.181 14.761l-1.841 24.998c-.63 8.55-13.017 15.363-17.682 15.363s-17.052-6.813-17.682-15.363l-1.841-24.998c-.404-5.488 1.436-10.73 5.181-14.761zm-17.559 76.612h15.627c4.541.142 8.69-2.885 9.743-7.529 4.756 1.37 8.251 1.385 13.057.001 1.037 4.598 5.167 7.692 9.757 7.528h15.616c10.585 0 19.197 8.612 19.197 19.197v70.293c0 7.925-4.828 14.744-11.697 17.671v-79.773c0-4.142-3.357-7.5-7.5-7.5s-7.5 3.358-7.5 7.5v173.414h-16.9v-98.439c0-4.142-3.357-7.5-7.5-7.5s-7.5 3.358-7.5 7.5v98.439h-16.9v-173.415c0-4.142-3.357-7.5-7.5-7.5s-7.5 3.358-7.5 7.5v79.773c-6.869-2.927-11.697-9.745-11.697-17.671v-70.293c0-10.584 8.612-19.196 19.197-19.196zm-99.636-76.612c7.71-8.298 20.888-8.39 28.684 0 3.745 4.031 5.585 9.273 5.181 14.761l-1.841 24.998c-.63 8.55-13.017 15.363-17.682 15.363s-17.052-6.813-17.682-15.363l-1.841-24.998c-.404-5.487 1.436-10.73 5.181-14.761zm-10.059 103.999c0-4.142-3.357-7.5-7.5-7.5s-7.5 3.358-7.5 7.5v79.773c-6.869-2.927-11.697-9.745-11.697-17.671v-70.293c0-10.585 8.612-19.197 19.197-19.197h15.627c4.61.143 8.704-2.947 9.744-7.529 4.748 1.367 8.242 1.387 13.057 0 1.04 4.609 5.176 7.692 9.756 7.529h15.616c10.585 0 19.197 8.612 19.197 19.197v70.293c0 7.925-4.828 14.744-11.697 17.671v-79.773c0-4.142-3.357-7.5-7.5-7.5s-7.5 3.358-7.5 7.5v173.414h-16.9v-98.439c0-4.142-3.357-7.5-7.5-7.5s-7.5 3.358-7.5 7.5v98.439h-16.9z"></path></g></svg>